<svg id="Texto" xmlns="http://www.w3.org/2000/svg" width="916" height="238" viewBox="0 0 916 238">
  <defs>
    <style>
      .cls-1, .cls-2 {
        fill-rule: evenodd;
      }

      .cls-2 {
        fill: #008037;
      }
    </style>
  </defs>
  <path id="RECUPERE" class="cls-1" d="M216.1,117.384a27.041,27.041,0,0,0,4.451.378,41.775,41.775,0,0,0,4.241-.21l14.866,20.954a23.022,23.022,0,0,1,1.616,2.624,7.473,7.473,0,0,1,.819,2.121h12.136v-0.168a9.186,9.186,0,0,1-1.638-.861,12.841,12.841,0,0,1-1.658-1.323,20.6,20.6,0,0,1-1.806-1.931q-0.945-1.134-2.037-2.688l-14.739-20.7a19.533,19.533,0,0,0,4.409-2.709,17.048,17.048,0,0,0,3.381-3.716,17.323,17.323,0,0,0,2.183-4.682,19.379,19.379,0,0,0,.777-5.606,16.286,16.286,0,0,0-1.407-6.908,14.548,14.548,0,0,0-3.926-5.144,17.472,17.472,0,0,0-5.942-3.191,24.418,24.418,0,0,0-7.454-1.092,52,52,0,0,0-7.117.4,33.057,33.057,0,0,1-4.43.4q-1.05,0-2.037-.021T209,83.2q-0.924-.084-1.763-0.168V83.2q0.252,0.882.483,2.184t0.4,3.254q0.166,1.953.251,4.619t0.084,6.236v27.337q0,3.57-.084,6.236t-0.251,4.6q-0.169,1.932-.4,3.233t-0.483,2.184v0.168h10.078v-0.168a22.036,22.036,0,0,1-.483-2.184q-0.231-1.3-.378-3.233t-0.252-4.6q-0.1-2.667-.1-6.236v-9.448Zm0-31.075a12.851,12.851,0,0,1,1.806-.462q0.923-.167,2.267-0.315a29.478,29.478,0,0,1,3.15-.147,11.844,11.844,0,0,1,5,.987,9.52,9.52,0,0,1,3.548,2.772,12.261,12.261,0,0,1,2.121,4.346A21.3,21.3,0,0,1,234.7,99.2a19.479,19.479,0,0,1-1.365,7.706,12.114,12.114,0,0,1-3.821,5.018,13.007,13.007,0,0,1-5.879,2.393,22.284,22.284,0,0,1-7.538-.21v-27.8Zm52.545-3.275V83.2a22.348,22.348,0,0,1,.483,2.184q0.231,1.3.4,3.254t0.252,4.619q0.084,2.667.084,6.236v27.337q0,3.57-.084,6.236t-0.252,4.6q-0.168,1.932-.4,3.233a22.326,22.326,0,0,1-.483,2.184v0.168h18.141c0.28,0,.735.006,1.365,0.021s1.35,0.027,2.162.042l2.583,0.042q1.363,0.021,2.6.063t2.247,0.084c0.672,0.027,1.176.056,1.512,0.084l1.218-6.8q-2.983.8-6.593,1.386-3.108.546-7.265,0.966a91.081,91.081,0,0,1-9.112.419V113.226q2.813,0,5.879.231t5.669,0.525q3.022,0.337,5.921.714l1.3-6.089q-2.184.337-5.039,0.588-2.436.212-5.921,0.42t-7.81.252V86.939q1.552-.084,3.065-0.168,1.3-.084,2.709-0.147t2.414-.063q2.982,0,5.27.231t3.885,0.483a30.926,30.926,0,0,1,3.233.672l2.058-5.585a33.817,33.817,0,0,1-4.158.336q-3.065.126-7.39,0.189t-9.512.105q-5.185.042-10.435,0.042h0Zm94.174,1.47a44.35,44.35,0,0,0-15.034-2.477,37.345,37.345,0,0,0-9.679,1.2,33.82,33.82,0,0,0-8.188,3.338,31.251,31.251,0,0,0-6.614,5.06,30.127,30.127,0,0,0-4.871,6.4,31.1,31.1,0,0,0-3,7.349,30.382,30.382,0,0,0-1.028,7.852,31.082,31.082,0,0,0,2.582,12.829,28.718,28.718,0,0,0,7.223,9.889,32.685,32.685,0,0,0,11.086,6.362,42.963,42.963,0,0,0,14.214,2.247,45.424,45.424,0,0,0,7.664-.651,36.251,36.251,0,0,0,6.949-1.869l3.36-8.566-0.462-.294a21.5,21.5,0,0,1-3.548,3.212,23.565,23.565,0,0,1-4.158,2.394,22.606,22.606,0,0,1-4.6,1.49,23.175,23.175,0,0,1-4.787.5,27.125,27.125,0,0,1-11.611-2.33,23.23,23.23,0,0,1-8.293-6.4,27.759,27.759,0,0,1-5-9.637,41.29,41.29,0,0,1-1.68-11.989A28.8,28.8,0,0,1,325.108,100a21.725,21.725,0,0,1,4.934-7.727,21.194,21.194,0,0,1,7.579-4.808,29.17,29.17,0,0,1,19.8.147,24.859,24.859,0,0,1,7.873,4.829l0.378-.168Zm62.662,38.549a19.857,19.857,0,0,1-1.491,8.251,13.721,13.721,0,0,1-3.9,5.165,14.19,14.19,0,0,1-5.522,2.667,27.006,27.006,0,0,1-12.682,0,14.367,14.367,0,0,1-5.543-2.667,13.611,13.611,0,0,1-3.926-5.165,19.857,19.857,0,0,1-1.491-8.251V99.5q0-3.569.084-6.236t0.252-4.619q0.168-1.953.4-3.254a22.348,22.348,0,0,1,.483-2.184V83.034H382.059V83.2a22.348,22.348,0,0,1,.483,2.184q0.23,1.3.4,3.254t0.252,4.619q0.084,2.667.084,6.236v23.1a25.122,25.122,0,0,0,1.847,10.183,17.807,17.807,0,0,0,5.1,6.8,20.417,20.417,0,0,0,7.642,3.8,36.517,36.517,0,0,0,9.469,1.176,33.646,33.646,0,0,0,9.365-1.239,18.833,18.833,0,0,0,7.348-3.947,18.259,18.259,0,0,0,4.787-6.95,27.233,27.233,0,0,0,1.722-10.246V99.5q0-3.569.105-6.236t0.252-4.619q0.147-1.953.378-3.254a22.058,22.058,0,0,1,.483-2.184V83.034H424.3V83.2a19.337,19.337,0,0,1,.462,2.184q0.21,1.3.378,3.254t0.252,4.619q0.084,2.667.084,6.236v23.558Zm35.639-36.744a12.887,12.887,0,0,1,1.806-.462q0.923-.167,2.268-0.315a29.445,29.445,0,0,1,3.149-.147,11.042,11.042,0,0,1,5,1.071,9.608,9.608,0,0,1,3.548,3.023,13.943,13.943,0,0,1,2.121,4.745,25.007,25.007,0,0,1,.714,6.194,22.37,22.37,0,0,1-1.365,8.314,13.013,13.013,0,0,1-3.821,5.4,12.669,12.669,0,0,1-5.879,2.6,21.156,21.156,0,0,1-7.538-.147V86.309Zm-8.86-3.107a22.348,22.348,0,0,1,.483,2.184q0.23,1.3.4,3.254t0.252,4.619q0.084,2.667.084,6.236v27.337q0,3.57-.084,6.236t-0.252,4.6q-0.168,1.932-.4,3.233a22.326,22.326,0,0,1-.483,2.184v0.168h10.078v-0.168a22.326,22.326,0,0,1-.483-2.184q-0.231-1.3-.378-3.233t-0.252-4.6q-0.1-2.667-.105-6.236v-6.971a30.7,30.7,0,0,0,10.2-.105,22.544,22.544,0,0,0,8.609-3.422,18.54,18.54,0,0,0,5.963-6.593,19.857,19.857,0,0,0,2.225-9.658,18.532,18.532,0,0,0-1.406-7.412,15.723,15.723,0,0,0-3.927-5.522,17.04,17.04,0,0,0-5.942-3.443,22.814,22.814,0,0,0-7.453-1.176,52.011,52.011,0,0,0-7.118.4,33.044,33.044,0,0,1-4.43.4q-1.05,0-2.037-.021t-1.784-.105q-0.924-.084-1.764-0.168V83.2Zm51.755-.168V83.2a22.348,22.348,0,0,1,.483,2.184q0.231,1.3.4,3.254t0.252,4.619q0.084,2.667.084,6.236v27.337q0,3.57-.084,6.236t-0.252,4.6q-0.168,1.932-.4,3.233a22.326,22.326,0,0,1-.483,2.184v0.168h18.141c0.28,0,.735.006,1.365,0.021s1.35,0.027,2.162.042l2.583,0.042q1.364,0.021,2.6.063t2.247,0.084c0.672,0.027,1.176.056,1.512,0.084l1.218-6.8q-2.984.8-6.593,1.386-3.108.546-7.265,0.966a91.081,91.081,0,0,1-9.112.419V113.226q2.813,0,5.879.231t5.669,0.525q3.023,0.337,5.921.714l1.3-6.089q-2.184.337-5.039,0.588-2.436.212-5.921,0.42t-7.81.252V86.939q1.553-.084,3.065-0.168,1.3-.084,2.709-0.147t2.414-.063q2.982,0,5.27.231t3.885,0.483a30.926,30.926,0,0,1,3.233.672l2.058-5.585a33.817,33.817,0,0,1-4.158.336q-3.065.126-7.39,0.189t-9.512.105q-5.185.042-10.435,0.042h0Zm58,34.35a27.041,27.041,0,0,0,4.451.378,41.781,41.781,0,0,0,4.242-.21l14.865,20.954a22.881,22.881,0,0,1,1.616,2.624,7.473,7.473,0,0,1,.819,2.121h12.136v-0.168a9.186,9.186,0,0,1-1.638-.861,12.841,12.841,0,0,1-1.658-1.323,20.738,20.738,0,0,1-1.806-1.931q-0.945-1.134-2.037-2.688l-14.739-20.7a19.533,19.533,0,0,0,4.409-2.709,17.048,17.048,0,0,0,3.381-3.716,17.323,17.323,0,0,0,2.183-4.682,19.379,19.379,0,0,0,.777-5.606,16.286,16.286,0,0,0-1.407-6.908,14.548,14.548,0,0,0-3.926-5.144,17.462,17.462,0,0,0-5.942-3.191,24.416,24.416,0,0,0-7.453-1.092,52,52,0,0,0-7.118.4,33.044,33.044,0,0,1-4.43.4q-1.05,0-2.037-.021T554.92,83.2q-0.924-.084-1.763-0.168V83.2a22.348,22.348,0,0,1,.483,2.184q0.23,1.3.4,3.254t0.252,4.619q0.082,2.667.084,6.236v27.337q0,3.57-.084,6.236t-0.252,4.6q-0.169,1.932-.4,3.233a22.326,22.326,0,0,1-.483,2.184v0.168h10.078v-0.168a22.326,22.326,0,0,1-.483-2.184q-0.231-1.3-.378-3.233t-0.252-4.6q-0.1-2.667-.1-6.236v-9.448Zm0-31.075a12.851,12.851,0,0,1,1.806-.462q0.923-.167,2.267-0.315a29.478,29.478,0,0,1,3.15-.147,11.844,11.844,0,0,1,5,.987,9.512,9.512,0,0,1,3.548,2.772,12.261,12.261,0,0,1,2.121,4.346,21.3,21.3,0,0,1,.714,5.711,19.479,19.479,0,0,1-1.365,7.706,12.114,12.114,0,0,1-3.821,5.018,13.007,13.007,0,0,1-5.879,2.393,22.284,22.284,0,0,1-7.538-.21v-27.8Zm52.546-3.275V83.2q0.252,0.882.482,2.184t0.4,3.254q0.168,1.953.252,4.619T615.78,99.5v27.337q0,3.57-.084,6.236t-0.252,4.6q-0.168,1.932-.4,3.233a22.357,22.357,0,0,1-.482,2.184v0.168H632.7c0.28,0,.735.006,1.365,0.021s1.35,0.027,2.163.042l2.582,0.042q1.364,0.021,2.6.063t2.246,0.084c0.672,0.027,1.176.056,1.512,0.084l1.218-6.8q-2.982.8-6.593,1.386-3.108.546-7.265,0.966a91.081,91.081,0,0,1-9.112.419V113.226q2.813,0,5.879.231t5.669,0.525q3.023,0.337,5.921.714l1.3-6.089q-2.184.337-5.039,0.588-2.436.212-5.921,0.42t-7.81.252V86.939q1.553-.084,3.065-0.168,1.3-.084,2.709-0.147t2.414-.063q2.982,0,5.27.231t3.885,0.483a30.926,30.926,0,0,1,3.233.672l2.058-5.585a33.817,33.817,0,0,1-4.158.336q-3.065.126-7.39,0.189T625,82.992q-5.187.042-10.435,0.042h0Z"/>
  <path id="TAX" class="cls-2" d="M682.444,126.832q0,3.57-.084,6.236t-0.252,4.6q-0.168,1.932-.378,3.233a19.546,19.546,0,0,1-.462,2.184v0.168H691.3v-0.168a22.326,22.326,0,0,1-.483-2.184q-0.231-1.3-.378-3.233t-0.252-4.6q-0.105-2.667-.105-6.236v-40.1a82.048,82.048,0,0,1,8.945.441q3.989,0.441,6.886.945,3.36,0.63,6.047,1.386l-1.217-6.8q-0.5.042-1.512,0.084t-2.247.084q-1.239.042-2.6,0.063l-2.583.042q-1.218.022-2.162,0.042c-0.63.014-1.086,0.021-1.365,0.021H674.3q-0.42,0-1.364-.021t-2.163-.042l-2.583-.042q-1.365-.021-2.6-0.063t-2.247-.084q-1.008-.041-1.511-0.084l-1.218,6.8q2.646-.756,6.005-1.386,2.9-.5,6.886-0.945a82.035,82.035,0,0,1,8.945-.441v40.1Zm96.341,16.419v-0.168q-0.21-.252-0.8-1.176t-1.343-2.268q-0.756-1.343-1.617-3.044t-1.659-3.506l-22.8-51.315h-3.36l-24.061,53.372q-1.345,3.066-2.478,5.1a15.071,15.071,0,0,1-1.89,2.835v0.168h8.567v-0.168a1.625,1.625,0,0,1-.168-0.483,3.98,3.98,0,0,1-.084-0.9,10.271,10.271,0,0,1,.714-3.737q0.713-1.848,1.344-3.4l4.829-11.086q2.476-.082,5.564-0.083h14.844q3.9,0,6.257.083l5.081,11.422a23.767,23.767,0,0,1,1.364,3.927,13.1,13.1,0,0,1,.357,2.876q0,0.336-.042.756a2.457,2.457,0,0,1-.126.63v0.168h11.506Zm-43.252-23.474,11.59-26.833,11.8,26.665q-1.848.042-4.115,0.063t-4.724.042q-2.457.023-5.018,0.042t-5,.021h-4.535Zm102.742,15.117a20.96,20.96,0,0,1,2.982,5.165,11.123,11.123,0,0,1,.8,3.192h13.059v-0.168a15.956,15.956,0,0,1-2.54-2.163,41.85,41.85,0,0,1-3.759-4.3L829.247,111l17.511-22.088q1.008-1.26,1.8-2.184t1.449-1.6q0.651-.671,1.155-1.134t0.924-.8V83.034h-8.147a4.093,4.093,0,0,1-.357,1.47,17.936,17.936,0,0,1-.923,1.911q-0.567,1.029-1.3,2.121t-1.491,2.016l-13.395,16.754L814.34,91.391a23.367,23.367,0,0,1-1.911-2.814,19.025,19.025,0,0,1-1.155-2.373,10.32,10.32,0,0,1-.566-1.869,7.4,7.4,0,0,1-.147-1.3H797.417V83.2a14.587,14.587,0,0,1,2.268,1.785,25.69,25.69,0,0,1,3.065,3.38l18.98,24.943-18.476,23.222a37.761,37.761,0,0,1-3.653,4.115q-1.723,1.638-2.6,2.436v0.168h8.147a3.6,3.6,0,0,1,.4-1.449,17.37,17.37,0,0,1,1.029-1.869q0.63-1.006,1.428-2.078t1.638-2.079L824.5,116.922Z"/>
  <path id="X" class="cls-2" d="M826.852,134.894a20.984,20.984,0,0,1,2.981,5.165,11.088,11.088,0,0,1,.8,3.192h13.06v-0.168a16,16,0,0,1-2.541-2.163,41.853,41.853,0,0,1-3.758-4.3L817.824,111l17.51-22.088q1.008-1.26,1.806-2.184t1.449-1.6q0.651-.671,1.155-1.134t0.923-.8V83.034h-8.146a4.093,4.093,0,0,1-.357,1.47,17.957,17.957,0,0,1-.924,1.911q-0.567,1.029-1.3,2.121t-1.49,2.016l-13.4,16.754L802.916,91.391a23.233,23.233,0,0,1-1.91-2.814,19.025,19.025,0,0,1-1.155-2.373,10.414,10.414,0,0,1-.567-1.869,7.494,7.494,0,0,1-.147-1.3H785.994V83.2a14.64,14.64,0,0,1,2.267,1.785,25.623,25.623,0,0,1,3.066,3.38l18.98,24.943L791.83,136.532a37.552,37.552,0,0,1-3.653,4.115q-1.722,1.638-2.6,2.436v0.168h8.146a3.6,3.6,0,0,1,.4-1.449,17.37,17.37,0,0,1,1.029-1.869q0.63-1.006,1.428-2.078t1.637-2.079l14.866-18.854Z"/>
  <rect x="75" y="97" width="46" height="5"/>
  <path id="Line_1_copy_4" data-name="Line 1 copy 4" class="cls-1" d="M62,81h75s7.1-4.418-7-8S98,63,98,63L65,74s-4.158,1.181-6,3C57.648,78.336,57.3,80.285,62,81Z"/>
  <path class="cls-1" d="M59,92c-3.313,2.622-3.837,6.383-2,8,2.115,1.862,4.407,1.176,7-1l4,3a9.707,9.707,0,0,1-8,5c-4.514.145-7.75-3.116-9-6-1.964-4.53-.14-13.945,6-14,5.093-.046,81,0,81,0,5.847,1.212,9.52,6.242,9,11-0.434,3.976-3.67,6.936-7,8a10.673,10.673,0,0,1-11-3l3-4c2.213,2.258,5.416,2.37,7,1,1.842-1.594,1.966-5.6-1-8H59Z"/>
  <rect x="120" y="108" width="5" height="80"/>
  <rect x="104" y="108" width="5" height="80"/>
  <rect id="Rectangle_2_copy" data-name="Rectangle 2 copy" x="88" y="108" width="5" height="80"/>
  <rect id="Rectangle_2_copy_2" data-name="Rectangle 2 copy 2" x="72" y="108" width="5" height="80"/>
  <rect x="164" y="57" width="6" height="142"/>
  <rect x="26" y="193" width="144" height="6"/>
  <rect x="26" y="123" width="6" height="76"/>
  <rect x="26" y="18" width="44" height="6"/>
  <rect x="26" y="18" width="6" height="39"/>
  <rect x="51" y="205" width="95" height="4"/>
</svg>
